# Blender 4.0.2
# www.blender.org
mtllib gnarpgnarp.mtl
o Plane
v -1.000000 0.002509 0.669191
v 1.000000 0.002509 0.669191
v -0.893176 1.994038 -0.750303
v 0.802259 2.054510 -0.793405
v -1.000000 1.590622 -0.462761
v 1.000000 1.590622 -0.462761
v 1.000000 2.070462 -0.804775
v -1.000000 1.999297 -0.754051
v 0.000000 0.002509 0.669191
v 0.602074 1.711654 -0.549029
v 0.000000 1.590622 -0.462761
v 0.647533 1.722259 -0.556588
v -0.756690 1.687258 -0.531640
v -0.787373 1.590622 -0.462761
v -0.787373 1.695190 -0.537294
v -0.787373 0.002509 0.669191
v -1.000000 0.119110 0.832781
v 1.000000 0.119110 0.832781
v -0.893176 2.110639 -0.586713
v 0.802259 2.171111 -0.629816
v -1.000000 1.707223 -0.299172
v 1.000000 1.707223 -0.299172
v 1.000000 2.187063 -0.641186
v -1.000000 2.115898 -0.590462
v 0.000000 0.119110 0.832781
v 0.602074 1.828255 -0.385439
v 0.000000 1.707223 -0.299172
v 0.647533 1.838860 -0.392999
v -0.756690 1.803859 -0.368051
v -0.787373 1.707223 -0.299172
v -0.787373 1.811791 -0.373704
v -0.787373 0.119110 0.832781
vn -0.0000 -0.5804 -0.8143
vn -0.0000 0.5804 0.8143
vn -0.0000 -0.8143 0.5804
vn 0.9402 0.2774 -0.1977
vn -0.0220 0.8141 -0.5803
vn -1.0000 -0.0000 -0.0000
vn 1.0000 -0.0000 -0.0000
vn -0.9031 0.3497 -0.2492
vn 0.0603 0.8128 -0.5794
vn -0.0986 0.8104 -0.5776
vt 0.500000 0.750000
vt 0.500000 1.000000
vt 1.000000 1.000000
vt 1.000000 0.750000
vt 0.500000 0.000000
vt 0.500000 0.500000
vt 1.000000 0.500000
vt 1.000000 0.000000
vt 0.250000 0.500000
vt 0.250000 0.750000
vt 0.250000 0.000000
vt 0.250000 1.000000
vt 0.000000 0.750000
vt 0.000000 1.000000
vt 0.000000 0.000000
vt 0.000000 0.500000
s 0
usemtl Material.002
f 12/1/1 10/2/1 4/3/1 7/4/1
f 9/5/1 11/6/1 6/7/1 2/8/1
f 11/6/1 12/1/1 7/4/1 6/7/1
f 14/9/1 15/10/1 12/1/1 11/6/1
f 16/11/1 14/9/1 11/6/1 9/5/1
f 15/10/2 13/12/2 10/2/2 12/1/2
f 8/13/1 3/14/1 13/12/1 15/10/1
f 1/15/1 5/16/1 14/9/1 16/11/1
f 5/16/1 8/13/1 15/10/1 14/9/1
f 28/1/2 23/4/2 20/3/2 26/2/2
f 25/5/2 18/8/2 22/7/2 27/6/2
f 27/6/2 22/7/2 23/4/2 28/1/2
f 30/9/2 27/6/2 28/1/2 31/10/2
f 32/11/2 25/5/2 27/6/2 30/9/2
f 31/10/1 28/1/1 26/2/1 29/12/1
f 24/13/2 31/10/2 29/12/2 19/14/2
f 17/15/2 32/11/2 30/9/2 21/16/2
f 21/16/2 30/9/2 31/10/2 24/13/2
f 1/15/3 16/11/3 32/11/3 17/15/3
f 13/12/4 3/14/4 19/14/4 29/12/4
f 16/11/3 9/5/3 25/5/3 32/11/3
f 10/2/5 13/12/5 29/12/5 26/2/5
f 5/16/6 1/15/6 17/15/6 21/16/6
f 6/7/7 7/4/7 23/4/7 22/7/7
f 8/13/6 5/16/6 21/16/6 24/13/6
f 4/3/8 10/2/8 26/2/8 20/3/8
f 9/5/3 2/8/3 18/8/3 25/5/3
f 3/14/9 8/13/9 24/13/9 19/14/9
f 2/8/7 6/7/7 22/7/7 18/8/7
f 7/4/10 4/3/10 20/3/10 23/4/10
o Cube
v -0.832756 0.134324 -0.362546
v -0.832756 0.826436 0.054731
v -0.832756 0.047791 -0.219019
v -0.832756 0.739903 0.198258
v 0.832756 0.134324 -0.362546
v 0.832756 0.826436 0.054731
v 0.832756 0.047791 -0.219019
v 0.832756 0.739903 0.198258
vn -1.0000 -0.0000 -0.0000
vn -0.0000 -0.5163 0.8564
vn 1.0000 -0.0000 -0.0000
vn -0.0000 0.5163 -0.8564
vn -0.0000 -0.8564 -0.5163
vn -0.0000 0.8564 0.5163
vt 0.375000 0.000000
vt 0.625000 0.000000
vt 0.625000 0.250000
vt 0.375000 0.250000
vt 0.625000 0.500000
vt 0.375000 0.500000
vt 0.625000 0.750000
vt 0.375000 0.750000
vt 0.625000 1.000000
vt 0.375000 1.000000
vt 0.125000 0.500000
vt 0.125000 0.750000
vt 0.875000 0.500000
vt 0.875000 0.750000
s 0
usemtl Material.002
f 33/17/11 35/20/11 36/19/11 34/18/11
f 35/20/12 39/22/12 40/21/12 36/19/12
f 39/22/13 37/24/13 38/23/13 40/21/13
f 37/24/14 33/26/14 34/25/14 38/23/14
f 35/27/15 33/28/15 37/24/15 39/22/15
f 40/21/16 38/23/16 34/30/16 36/29/16
o Plane.001
v -1.000000 0.177938 0.792740
v 1.000000 0.177938 0.792740
v -1.000000 1.806575 -0.368098
v 1.000000 1.806575 -0.368098
vn -0.0000 0.5804 0.8143
vt 0.000000 0.000000
vt 1.000000 0.000000
vt 1.000000 1.000000
vt 0.000000 1.000000
s 0
usemtl Material.001
f 41/31/17 42/32/17 44/33/17 43/34/17
